# xmcd
#
# Track frame offsets:
#	182
#	19237
#	49547
#	68757
#	84687
#	98190
#	120495
#	138627
#	149257
#	158822
#	169382
#	181587
#
# Disc length: 2626 seconds
#
# Revision: 1
# Processed by: cddbd v1.4PL0 Copyright (c) Steve Scherf et al.
# Submitted via: audiograbber 1.81.02
#
DISCID=9f0a400c
DTITLE=Dave Van Ronk - Statesboro Blues
DYEAR=1900
DGENRE=
TTITLE0=Green Rocky Road
TTITLE1=Jesus Met The Woman At The Well
TTITLE2=Somebody Else But Me
TTITLE3=Come Back Baby (Let's Talk It Over One More Time)
TTITLE4=The Boll Weevil Song
TTITLE5=St. James Infirmary
TTITLE6=Blood Red Moon
TTITLE7=Baby Let Me Lay It On You
TTITLE8=Statesboro Blues
TTITLE9=Dry Land Blues
TTITLE10=Keep It Clean
TTITLE11=Left Bank Blues
EXTD=
EXTT0=
EXTT1=
EXTT2=
EXTT3=
EXTT4=
EXTT5=
EXTT6=
EXTT7=
EXTT8=
EXTT9=
EXTT10=
EXTT11=
PLAYORDER=
